# xmcd
#
# Track frame offsets:
#	182
#	15550
#	35075
#	59582
#	77337
#	99970
#	117665
#	140862
#	161255
#	179555
#	194197
#
# Disc length: 2852 seconds
#
# Revision: 0
# Processed by: cddbd v1.5.1PL0 Copyright (c) Steve Scherf et al.
# Submitted via: audiograbber 1.82.02
#
DISCID=9c0b220b
DTITLE=Canned Heat - Internal Combustion
DYEAR=1994
DGENRE=Blues
TTITLE0=I Used To Be Bad
TTITLE1=John Lee Hooker Boogie
TTITLE2=Remember Woodstock
TTITLE3=(You'll Have to) Come and Get It
TTITLE4=The Heat in Me Is Up
TTITLE5=It' Hot
TTITLE6=Vision of You
TTITLE7=Nothing at All
TTITLE8=24 Hours
TTITLE9=Gamblin' Woman
TTITLE10=I Might be Tempted
EXTD=UPC 5015773700120
EXTT0=
EXTT1=
EXTT2=
EXTT3=
EXTT4=
EXTT5=
EXTT6=
EXTT7=
EXTT8=
EXTT9=
EXTT10=
PLAYORDER=
